# xmcd
#
# Track frame offsets: 
#        150
#        12520
#        24628
#        37365
#        48326
#        63605
#        73975
#        85205
#        98241
#        106274
#        116073
#        129098
#        141549
#
# Disc length: 2073 seconds
#
# Revision: 3
# Processed by: cddbd v1.5.1PL0 Copyright (c) Steve Scherf et al.
# Submitted via: ExactAudioCopy v0.95a5
#
DISCID=c208170d
DTITLE=Billy Joe Shaver - Old Five And Dimers Like Me
DYEAR=1973
DGENRE=Country
TTITLE0=Black Rose
TTITLE1=Old Five And Dimers Like Me
TTITLE2=L.A. Turnaround
TTITLE3=Jesus Christ, What A Man
TTITLE4=Played The Game Too Long
TTITLE5=I Been To Georgia On A Fast Train
TTITLE6=Willy The Wandering Gypsy And Me
TTITLE7=Low Down Freedom
TTITLE8=Jesus Was Our Savior And Cotton Was Our King
TTITLE9=Serious Souls
TTITLE10=Bottom Dollar
TTITLE11=Ride Cowboy Ride
TTITLE12=Good Christian Soldier
EXTD=(C) 1996 Koch  (C) 1973,1996 Sony Music Entertainment YEAR: 1973
EXTT0=
EXTT1=
EXTT2=
EXTT3=
EXTT4=
EXTT5=
EXTT6=
EXTT7=
EXTT8=
EXTT9=
EXTT10=
EXTT11=Previously unreleased
EXTT12=Previously unreleased
PLAYORDER=
